<svg width="20" height="18" viewBox="0 0 20 18" fill="none" xmlns="http://www.w3.org/2000/svg">
<path opacity="0.4" d="M8.08329 12.958H1.50777C0.675552 12.958 0 13.6217 0 14.4393C0 15.2558 0.675552 15.9206 1.50777 15.9206H8.08329C8.91551 15.9206 9.59106 15.2558 9.59106 14.4393C9.59106 13.6217 8.91551 12.958 8.08329 12.958Z" fill="white"/>
<path opacity="0.4" d="M20.0001 3.37856C20.0001 2.56203 19.3246 1.89832 18.4934 1.89832H11.9179C11.0857 1.89832 10.4102 2.56203 10.4102 3.37856C10.4102 4.19618 11.0857 4.85989 11.9179 4.85989H18.4934C19.3246 4.85989 20.0001 4.19618 20.0001 3.37856Z" fill="white"/>
<path d="M6.87774 3.37856C6.87774 5.24523 5.33886 6.75821 3.43887 6.75821C1.53999 6.75821 0 5.24523 0 3.37856C0 1.51298 1.53999 0 3.43887 0C5.33886 0 6.87774 1.51298 6.87774 3.37856Z" fill="white"/>
<path d="M20.0001 14.3992C20.0001 16.2648 18.4612 17.7778 16.5612 17.7778C14.6623 17.7778 13.1223 16.2648 13.1223 14.3992C13.1223 12.5325 14.6623 11.0196 16.5612 11.0196C18.4612 11.0196 20.0001 12.5325 20.0001 14.3992Z" fill="white"/>
</svg>
